<svg xmlns="http://www.w3.org/2000/svg" width="270" height="85" fill="none"><rect id="backgroundrect" width="100%" height="100%" x="0" y="0" fill="none" stroke="none"/>








<defs>
<filter id="filter0_d" x="-0.0005340580246411264" y="4.220160007476807" width="66.21759796142578" height="74.3207015991211" filterUnits="userSpaceOnUse" color-interpolation-filters="sRGB">
<feFlood flood-opacity="0" result="BackgroundImageFix"/>
<feColorMatrix in="SourceAlpha" type="matrix" values="0 0 0 0 0 0 0 0 0 0 0 0 0 0 0 0 0 0 127 0"/>
<feOffset dy="4"/>
<feGaussianBlur stdDeviation="2"/>
<feColorMatrix type="matrix" values="0 0 0 0 0 0 0 0 0 0 0 0 0 0 0 0 0 0 0.25 0"/>
<feBlend mode="normal" in2="BackgroundImageFix" result="effect1_dropShadow"/>
<feBlend mode="normal" in="SourceGraphic" in2="effect1_dropShadow" result="shape"/>
</filter>
<filter id="filter1_d" x="29.103500366210938" y="22.89349937438965" width="67.09709930419922" height="65.25969696044922" filterUnits="userSpaceOnUse" color-interpolation-filters="sRGB">
<feFlood flood-opacity="0" result="BackgroundImageFix"/>
<feColorMatrix in="SourceAlpha" type="matrix" values="0 0 0 0 0 0 0 0 0 0 0 0 0 0 0 0 0 0 127 0"/>
<feOffset dy="4"/>
<feGaussianBlur stdDeviation="2"/>
<feColorMatrix type="matrix" values="0 0 0 0 0 0 0 0 0 0 0 0 0 0 0 0 0 0 0.25 0"/>
<feBlend mode="normal" in2="BackgroundImageFix" result="effect1_dropShadow"/>
<feBlend mode="normal" in="SourceGraphic" in2="effect1_dropShadow" result="shape"/>
</filter>
</defs>
<g class="currentLayer" style=""><title>Layer 1</title><path d="M105.705 11.9883H132.219V22.4619H127.214V16.2119H114.006V28.1016H126.726V32.2031H114.006V44.8008H117.717V49H105.705V44.8008H109.221V16.2119H105.705V11.9883ZM182.829 11.9883H194.841V16.2119H191.618L181.047 49H173.576L163.542 16.749L154.289 49H146.892L136.101 16.2119H132.829V11.9883H144.841V16.2119H141.618L150.578 44.6543L160.026 11.9883H167.326L177.385 44.6543L186.516 16.2119H182.829V11.9883ZM220.476 44.8008H223.552L220.622 36.4023H206.389L203.532 44.8008H207.341V49H195.329V44.8008H198.552L210.075 11.9883H217.277L228.776 44.8008H232.487V49H220.476V44.8008ZM207.78 32.3496H219.206L213.444 15.7969L207.78 32.3496ZM236.223 11.9883H251.188C252.849 11.9883 254.37 12.208 255.754 12.6475C257.154 13.0706 258.358 13.7054 259.367 14.5518C260.393 15.3818 261.182 16.4235 261.735 17.6768C262.305 18.93 262.59 20.3704 262.59 21.998C262.59 23.349 262.313 24.6266 261.76 25.8311C261.206 27.0192 260.425 28.0609 259.416 28.9561C258.407 29.8512 257.194 30.5592 255.778 31.0801C254.379 31.6009 252.816 31.8613 251.091 31.8613H244.523V44.8008H248.234V49H236.223V44.8008H239.738V16.2119H236.223V11.9883ZM244.523 16.2119V27.8574H251.188C252.116 27.8574 252.963 27.7354 253.728 27.4912C254.509 27.2308 255.176 26.8564 255.729 26.3682C256.299 25.8799 256.739 25.2695 257.048 24.5371C257.373 23.8047 257.536 22.9583 257.536 21.998C257.536 20.1751 256.983 18.7591 255.876 17.75C254.769 16.7246 253.003 16.2119 250.578 16.2119H244.523Z" fill="#F7F7F7" id="svg_1"/><path d="M117.522 77.6396V78H112.662V77.6396L114.288 77.0068V65.9062L112.662 65.2734V64.9131L115.729 64.2803L115.905 64.4648V77.0068L117.522 77.6396ZM126.558 73.5527H120.871C120.877 74.209 120.971 74.7803 121.152 75.2666C121.334 75.7529 121.58 76.1338 121.891 76.4092C122.201 76.6846 122.541 76.8867 122.91 77.0156C123.285 77.1445 123.692 77.209 124.132 77.209C124.741 77.209 125.395 77.0039 126.092 76.5938L126.364 77.1211C125.872 77.5547 125.38 77.8477 124.888 78C124.396 78.1465 123.836 78.2197 123.209 78.2197C122.664 78.2197 122.14 78.1055 121.636 77.877C121.132 77.6426 120.689 77.3232 120.309 76.9189C119.928 76.5088 119.623 76.0078 119.395 75.416C119.166 74.8242 119.052 74.1855 119.052 73.5C119.052 72.8496 119.134 72.2578 119.298 71.7246C119.468 71.1855 119.69 70.7373 119.966 70.3799C120.241 70.0225 120.561 69.7207 120.924 69.4746C121.293 69.2285 121.668 69.0527 122.049 68.9473C122.436 68.8359 122.828 68.7803 123.227 68.7803C123.725 68.7803 124.185 68.874 124.606 69.0615C125.034 69.2432 125.412 69.5156 125.74 69.8789C126.074 70.2363 126.335 70.708 126.522 71.2939C126.716 71.8799 126.812 72.5479 126.812 73.2979L126.558 73.5527ZM123.262 69.6328C122.588 69.6328 122.049 69.8994 121.645 70.4326C121.246 70.9658 121 71.6953 120.906 72.6211H125.099C125.099 71.6836 124.94 70.9512 124.624 70.4238C124.308 69.8965 123.854 69.6328 123.262 69.6328ZM136.814 77.2266V77.5518L134.907 78.1406C134.532 78.2227 134.216 78.1787 133.958 78.0088C133.7 77.8447 133.571 77.5605 133.571 77.1562C132.81 77.8652 131.916 78.2197 130.891 78.2197C130.041 78.2197 129.405 78 128.983 77.5605C128.562 77.1211 128.351 76.5703 128.351 75.9082C128.351 75.4102 128.462 74.9707 128.685 74.5898C128.907 74.2031 129.191 73.8955 129.537 73.667C129.883 73.4385 130.296 73.248 130.776 73.0957C131.257 72.9434 131.72 72.8379 132.165 72.7793C132.61 72.7207 133.079 72.6855 133.571 72.6738V71.8301C133.571 71.0098 133.442 70.4385 133.185 70.1162C132.927 69.7939 132.499 69.6328 131.901 69.6328C131.45 69.6328 130.92 69.7031 130.311 69.8438L129.379 71.8828H128.948V69.3779C129.476 69.1904 130.032 69.0439 130.618 68.9385C131.204 68.833 131.72 68.7803 132.165 68.7803C133.132 68.7803 133.876 68.9766 134.397 69.3691C134.925 69.7559 135.188 70.3945 135.188 71.2852V76.7783L136.814 77.2266ZM131.629 77.1914C131.963 77.1914 132.306 77.1123 132.657 76.9541C133.009 76.79 133.313 76.5674 133.571 76.2861V73.3945C132.399 73.4473 131.506 73.6875 130.891 74.1152C130.275 74.5371 129.968 75.0762 129.968 75.7324C129.968 76.2363 130.129 76.6055 130.451 76.8398C130.773 77.0742 131.166 77.1914 131.629 77.1914ZM143.028 77.6396V78H137.72V77.6396L139.337 77.0068V70.4062L137.72 69.7734V69.4131L140.778 68.7803L140.954 68.9648V70.0459C141.845 69.2021 143.017 68.7803 144.47 68.7803V70.7314L144.109 70.8545L142.826 70.1514C142.562 70.1514 142.261 70.21 141.921 70.3271C141.581 70.4385 141.259 70.6025 140.954 70.8193V77.0068L143.028 77.6396ZM150.13 77.6396V78H145.366V77.6396L146.983 77.0068V70.4062L145.366 69.7734V69.4131L148.425 68.7803L148.601 68.9648V70.0283C149.017 69.6416 149.503 69.3369 150.06 69.1143C150.616 68.8916 151.164 68.7803 151.703 68.7803C152.488 68.7803 153.139 69.0205 153.654 69.501C154.176 69.9814 154.437 70.6963 154.437 71.6455V77.0068L156.054 77.6396V78H151.281V77.6396L152.819 77.0068V72.1816C152.819 71.3379 152.667 70.752 152.362 70.4238C152.063 70.0957 151.548 69.9316 150.815 69.9316C149.942 69.9316 149.204 70.1924 148.601 70.7139V77.0068L150.13 77.6396ZM164.702 78.3955H164.166V65.9062L162.54 65.2734V64.9131L165.599 64.2803L165.783 64.4648V69.5801C166.393 69.0469 167.189 68.7803 168.174 68.7803C168.66 68.7803 169.132 68.8916 169.589 69.1143C170.052 69.3311 170.462 69.6387 170.819 70.0371C171.177 70.4297 171.464 70.9277 171.681 71.5312C171.897 72.1348 172.006 72.791 172.006 73.5C172.006 74.25 171.88 74.9297 171.628 75.5391C171.382 76.1484 171.048 76.6465 170.626 77.0332C170.204 77.4141 169.724 77.707 169.185 77.9121C168.651 78.1172 168.086 78.2197 167.488 78.2197C166.721 78.2197 165.959 78.0439 165.203 77.6924L164.702 78.3955ZM167.532 69.6855C166.841 69.6855 166.258 69.9609 165.783 70.5117V76.4883C166.076 76.8223 166.366 77.0449 166.653 77.1562C166.946 77.2617 167.257 77.3145 167.585 77.3145C168.13 77.3145 168.602 77.1299 169 76.7607C169.404 76.3916 169.7 75.9258 169.888 75.3633C170.081 74.7949 170.178 74.1738 170.178 73.5C170.178 72.3809 169.935 71.4668 169.448 70.7578C168.968 70.043 168.329 69.6855 167.532 69.6855ZM172.463 69.3604V69H177.121V69.3604L175.759 69.8965L178.352 75.7852L180.47 69.8613L179.178 69.3604V69H183.01V69.3604L181.393 69.9932L178.51 78L176.532 82.7197L175.038 82.4473L174.871 82.0869L177.666 77.6924L174.08 69.9316V69.9932L172.463 69.3604ZM194.163 82.1396V82.5H188.942V82.1396L190.568 81.5068V70.4062L188.942 69.7734V69.4131L192.001 68.7803L192.186 68.9648V69.8613C192.514 69.457 192.865 69.1758 193.24 69.0176C193.615 68.8594 194.055 68.7803 194.559 68.7803C195.045 68.7803 195.517 68.8916 195.974 69.1143C196.437 69.3311 196.847 69.6387 197.204 70.0371C197.567 70.4297 197.857 70.9277 198.074 71.5312C198.297 72.1348 198.408 72.791 198.408 73.5C198.408 74.3027 198.285 75.0146 198.039 75.6357C197.793 76.2568 197.462 76.752 197.046 77.1211C196.636 77.4844 196.182 77.7598 195.684 77.9473C195.186 78.1289 194.661 78.2197 194.11 78.2197C193.413 78.2197 192.771 78.0938 192.186 77.8418V81.5068L194.163 82.1396ZM194.181 69.6855C193.812 69.6855 193.448 69.7705 193.091 69.9404C192.733 70.1104 192.432 70.3477 192.186 70.6523V76.2334C192.355 76.5674 192.613 76.8311 192.959 77.0244C193.311 77.2178 193.694 77.3145 194.11 77.3145C194.362 77.3145 194.603 77.2734 194.831 77.1914C195.06 77.1094 195.282 76.9717 195.499 76.7783C195.716 76.585 195.903 76.3447 196.062 76.0576C196.22 75.7705 196.346 75.4102 196.439 74.9766C196.533 74.5371 196.58 74.0449 196.58 73.5C196.58 72.3633 196.369 71.4434 195.947 70.7402C195.525 70.0371 194.937 69.6855 194.181 69.6855ZM204.622 77.6396V78H199.762V77.6396L201.388 77.0068V65.9062L199.762 65.2734V64.9131L202.829 64.2803L203.005 64.4648V77.0068L204.622 77.6396ZM214.615 77.2266V77.5518L212.708 78.1406C212.333 78.2227 212.017 78.1787 211.759 78.0088C211.501 77.8447 211.372 77.5605 211.372 77.1562C210.61 77.8652 209.717 78.2197 208.691 78.2197C207.842 78.2197 207.206 78 206.784 77.5605C206.362 77.1211 206.151 76.5703 206.151 75.9082C206.151 75.4102 206.263 74.9707 206.485 74.5898C206.708 74.2031 206.992 73.8955 207.338 73.667C207.684 73.4385 208.097 73.248 208.577 73.0957C209.058 72.9434 209.521 72.8379 209.966 72.7793C210.411 72.7207 210.88 72.6855 211.372 72.6738V71.8301C211.372 71.0098 211.243 70.4385 210.985 70.1162C210.728 69.7939 210.3 69.6328 209.702 69.6328C209.251 69.6328 208.721 69.7031 208.111 69.8438L207.18 71.8828H206.749V69.3779C207.276 69.1904 207.833 69.0439 208.419 68.9385C209.005 68.833 209.521 68.7803 209.966 68.7803C210.933 68.7803 211.677 68.9766 212.198 69.3691C212.726 69.7559 212.989 70.3945 212.989 71.2852V76.7783L214.615 77.2266ZM209.43 77.1914C209.764 77.1914 210.106 77.1123 210.458 76.9541C210.81 76.79 211.114 76.5674 211.372 76.2861V73.3945C210.2 73.4473 209.307 73.6875 208.691 74.1152C208.076 74.5371 207.769 75.0762 207.769 75.7324C207.769 76.2363 207.93 76.6055 208.252 76.8398C208.574 77.0742 208.967 77.1914 209.43 77.1914ZM214.527 69.3604V69H219.186V69.3604L217.823 69.8965L220.416 75.7852L222.534 69.8613L221.242 69.3604V69H225.074V69.3604L223.457 69.9932L220.574 78L218.597 82.7197L217.103 82.4473L216.936 82.0869L219.73 77.6924L216.145 69.9316V69.9932L214.527 69.3604ZM230.383 77.6396V78H225.522V77.6396L227.14 77.0068V70.4062L225.522 69.7734V69.4131L228.581 68.7803L228.766 68.9648V77.0068L230.383 77.6396ZM226.551 66.1348C226.551 65.8301 226.656 65.5723 226.867 65.3613C227.084 65.1445 227.351 65.0361 227.667 65.0361C227.972 65.0361 228.229 65.1445 228.44 65.3613C228.657 65.5723 228.766 65.8301 228.766 66.1348C228.766 66.4512 228.657 66.7178 228.44 66.9346C228.229 67.1455 227.972 67.251 227.667 67.251C227.351 67.251 227.084 67.1455 226.867 66.9346C226.656 66.7178 226.551 66.4512 226.551 66.1348ZM236.315 77.6396V78H231.552V77.6396L233.169 77.0068V70.4062L231.552 69.7734V69.4131L234.61 68.7803L234.786 68.9648V70.0283C235.202 69.6416 235.688 69.3369 236.245 69.1143C236.802 68.8916 237.35 68.7803 237.889 68.7803C238.674 68.7803 239.324 69.0205 239.84 69.501C240.361 69.9814 240.622 70.6963 240.622 71.6455V77.0068L242.239 77.6396V78H237.467V77.6396L239.005 77.0068V72.1816C239.005 71.3379 238.853 70.752 238.548 70.4238C238.249 70.0957 237.733 69.9316 237.001 69.9316C236.128 69.9316 235.39 70.1924 234.786 70.7139V77.0068L236.315 77.6396ZM245.887 78.3428C245.312 78.6943 245.025 79.251 245.025 80.0127C245.025 80.3584 245.11 80.6455 245.28 80.874C245.45 81.1084 245.667 81.293 245.931 81.4277C246.194 81.5684 246.487 81.668 246.81 81.7266C247.132 81.7852 247.442 81.8145 247.741 81.8145C248.052 81.8145 248.362 81.7822 248.673 81.7178C248.989 81.6592 249.271 81.5684 249.517 81.4453C249.769 81.3281 249.974 81.1787 250.132 80.9971C250.29 80.8213 250.369 80.6133 250.369 80.373C250.369 80.0039 250.275 79.708 250.088 79.4854C249.906 79.2627 249.657 79.084 249.341 78.9492C249.024 78.8203 248.652 78.7236 248.225 78.6592C247.797 78.5947 247.34 78.5361 246.854 78.4834C246.648 78.46 246.464 78.4365 246.3 78.4131C246.142 78.3896 246.004 78.3662 245.887 78.3428ZM247.653 75.5479C247.05 75.5479 246.496 75.4541 245.992 75.2666C245.623 75.5127 245.438 75.8232 245.438 76.1982C245.438 76.415 245.562 76.5879 245.808 76.7168C246.06 76.8457 246.385 76.9395 246.783 76.998C247.182 77.0508 247.621 77.1006 248.102 77.1475C248.582 77.1943 249.062 77.2676 249.543 77.3672C250.023 77.4668 250.463 77.6045 250.861 77.7803C251.26 77.9502 251.582 78.208 251.828 78.5537C252.08 78.9053 252.206 79.333 252.206 79.8369C252.206 80.2412 252.109 80.6104 251.916 80.9443C251.723 81.2783 251.468 81.5508 251.151 81.7617C250.841 81.9785 250.475 82.1602 250.053 82.3066C249.631 82.4531 249.2 82.5586 248.761 82.623C248.327 82.6875 247.885 82.7197 247.434 82.7197C246.174 82.7197 245.189 82.5 244.48 82.0605C243.771 81.627 243.417 81.0586 243.417 80.3555C243.417 79.3418 243.977 78.6035 245.096 78.1406C244.398 77.9062 244.05 77.4697 244.05 76.8311C244.05 76.0811 244.507 75.457 245.421 74.959C244.911 74.6484 244.519 74.2441 244.243 73.7461C243.974 73.248 243.839 72.7207 243.839 72.1641C243.839 71.7363 243.924 71.3232 244.094 70.9248C244.264 70.5205 244.504 70.1602 244.814 69.8438C245.131 69.5215 245.535 69.2637 246.027 69.0703C246.52 68.877 247.062 68.7803 247.653 68.7803C248.169 68.7803 248.641 68.8535 249.068 69H252.602V69.3604L250.677 70.0459C251.204 70.6611 251.468 71.3672 251.468 72.1641C251.468 72.5918 251.38 73.0078 251.204 73.4121C251.034 73.8105 250.791 74.1709 250.475 74.4932C250.164 74.8096 249.763 75.0645 249.271 75.2578C248.784 75.4512 248.245 75.5479 247.653 75.5479ZM245.667 72.1641C245.667 72.9668 245.843 73.582 246.194 74.0098C246.546 74.4375 247.032 74.6514 247.653 74.6514C248.269 74.6514 248.752 74.4375 249.104 74.0098C249.455 73.5762 249.631 72.9609 249.631 72.1641C249.631 71.3672 249.455 70.7549 249.104 70.3271C248.752 69.8994 248.269 69.6855 247.653 69.6855C247.032 69.6855 246.546 69.8994 246.194 70.3271C245.843 70.7549 245.667 71.3672 245.667 72.1641Z" fill="#D7D7D7" id="svg_2"/><g filter="url(#filter0_d)" id="svg_3">
<path d="M37.9719 66.1596L33.1035 67.6927L24.3707 70.442C23.2996 70.7795 22.144 70.2254 21.7904 69.2045L4.10293 18.2508C3.74937 17.2308 4.33119 16.1302 5.40224 15.7935L41.8434 4.31906C42.9153 3.98158 44.0717 4.53569 44.4261 5.5565L46.6536 11.9717L62.1136 56.5102C62.4671 57.5303 61.8853 58.6309 60.8143 58.9676L37.9719 66.1596Z" fill="#8DBBFF" id="svg_4"/>
</g><path d="M21.2924 10.7905L5.40224 15.7935C4.33119 16.1302 3.74937 17.2308 4.10293 18.2508L21.7904 69.2045C22.144 70.2253 23.2996 70.7795 24.3707 70.442L33.1035 67.6927L37.9719 66.1596L40.5856 65.3364L21.2924 10.7905Z" fill="#749CD8" id="svg_5"/><g filter="url(#filter1_d)" id="svg_6">
<path d="M91.0199 28.9651C91.9417 29.2745 92.4246 30.2375 92.0989 31.1147L74.3237 79.0295C73.9965 79.9067 72.9853 80.3665 72.0635 80.0564L35.3589 67.7049H33.1074L33.1035 67.6927L37.9719 66.1596H70.2677C71.2446 66.1589 72.0363 65.4048 72.0371 64.4745V22.8935H72.0946L91.0199 28.9651Z" fill="#FFF599" id="svg_7"/>
</g><path d="M72.0371 22.8935V64.4745C72.0363 65.4048 71.2446 66.1589 70.2678 66.1596H37.9719L60.8143 58.9676C61.8853 58.6309 62.4671 57.5303 62.1136 56.5102L46.6536 11.9717H70.2678C71.2446 11.9725 72.0363 12.7265 72.0371 13.6568V22.8935Z" fill="#8CFF79" id="svg_8"/><path d="M43.7485 35.6927C43.1412 31.2599 38.6981 26.5731 30.1417 26.0958C29.8321 26.0775 29.5216 26.1163 29.2271 26.209C28.9669 26.2934 28.7227 26.4181 28.504 26.5769C28.4745 26.5982 28.445 26.6202 28.4162 26.6438C21.8718 31.9394 21.2365 38.2064 23.5103 42.0684L23.5167 42.079C24.8759 44.351 27.0651 45.6203 29.4234 45.6203C30.1266 45.618 30.8249 45.5093 31.4921 45.2965C32.8624 44.8283 34.0827 44.0302 35.0357 42.9813C36.6175 43.3089 38.0836 43.2671 39.3973 42.8536C42.5099 41.8715 44.217 39.0592 43.7485 35.6927Z" fill="#F8EC7D" id="svg_9"/><path d="M33.5185 50.8475C32.7635 50.8475 32.0851 50.4082 31.8074 49.7393C31.5304 49.0704 31.7108 48.308 32.2623 47.817L34.9862 45.3923C35.7188 44.7386 36.7141 44.4201 37.7133 44.5197L41.5314 44.8906C42.5338 44.9971 43.2593 45.8537 43.1571 46.8091C43.0542 47.7653 42.1619 48.4646 41.1571 48.3749L37.4284 48.0123L34.7739 50.3755C34.4331 50.6795 33.9846 50.8483 33.5185 50.8475ZM37.5018 47.9477H37.5002H37.5018Z" fill="#F8EC7D" id="svg_10"/></g></svg>