<svg width="266" height="100" viewBox="0 0 266 100" fill="none" xmlns="http://www.w3.org/2000/svg">
<g clip-path="url(#clip0)">
<g filter="url(#filter0_d)">
<path d="M32.3541 66.1596L27.7175 67.6927L19.4006 70.442C18.3805 70.7795 17.2799 70.2253 16.9432 69.2045L0.0979591 18.2508C-0.238763 17.2308 0.315346 16.1302 1.33539 15.7935L36.0413 4.31906C37.0621 3.98158 38.1635 4.53569 38.501 5.5565L40.6224 11.9717L55.3462 56.5102C55.6829 57.5303 55.1288 58.6309 54.1088 58.9676L32.3541 66.1596Z" fill="#8DBBFF"/>
</g>
<path d="M16.4689 10.7905L1.33539 15.7935C0.315346 16.1302 -0.238763 17.2308 0.0979591 18.2508L16.9432 69.2045C17.2799 70.2253 18.3805 70.7795 19.4006 70.442L27.7175 67.6927L32.3541 66.1596L34.8434 65.3364L16.4689 10.7905Z" fill="#749CD8"/>
<g filter="url(#filter1_d)">
<path d="M82.8761 28.9651C83.754 29.2745 84.2139 30.2375 83.9038 31.1147L66.975 79.0295C66.6633 79.9067 65.7003 80.3665 64.8224 80.0564L29.8656 67.7049H27.7214L27.7176 67.6927L32.3542 66.1596H63.1122C64.0425 66.1589 64.7965 65.4048 64.7973 64.4745V22.8935H64.852L82.8761 28.9651Z" fill="#FFF599"/>
</g>
<path d="M64.7973 22.8935V64.4745C64.7965 65.4049 64.0425 66.1589 63.1122 66.1596H32.3542L54.1088 58.9676C55.1289 58.6309 55.683 57.5303 55.3463 56.5102L40.6225 11.9717H63.1122C64.0425 11.9725 64.7965 12.7265 64.7973 13.6568V22.8935Z" fill="#8CFF79"/>
<path d="M37.8557 35.6927C37.2773 31.2599 33.0459 26.5731 24.8969 26.0958C24.602 26.0775 24.3063 26.1163 24.0258 26.209C23.778 26.2934 23.5454 26.4181 23.3372 26.5769C23.309 26.5982 23.2809 26.6202 23.2536 26.6438C17.0208 31.9394 16.4157 38.2064 18.5813 42.0684L18.5873 42.079C19.8818 44.351 21.9667 45.6203 24.2128 45.6203C24.8824 45.618 25.5475 45.5093 26.183 45.2965C27.488 44.8283 28.6502 44.0302 29.5578 42.9813C31.0643 43.3089 32.4606 43.2671 33.7117 42.8536C36.6761 41.8715 38.3019 39.0592 37.8557 35.6927Z" fill="#F8EC7D"/>
<path d="M28.1128 50.8475C27.3938 50.8475 26.7477 50.4082 26.4832 49.7393C26.2194 49.0704 26.3912 48.308 26.9165 47.817L29.5107 45.3923C30.2084 44.7386 31.1563 44.4201 32.1079 44.5197L35.7442 44.8906C36.6989 44.9971 37.3898 45.8537 37.2925 46.8091C37.1944 47.7653 36.3447 48.4646 35.3877 48.3749L31.8365 48.0123L29.3085 50.3755C28.9839 50.6795 28.5567 50.8483 28.1128 50.8475ZM31.9065 47.9477H31.905H31.9065Z" fill="#F8EC7D"/>
</g>
<path d="M101.705 11.9883H128.219V22.4619H123.214V16.2119H110.006V28.1016H122.726V32.2031H110.006V44.8008H113.717V49H101.705V44.8008H105.221V16.2119H101.705V11.9883ZM178.829 11.9883H190.841V16.2119H187.618L177.047 49H169.576L159.542 16.749L150.289 49H142.892L132.101 16.2119H128.829V11.9883H140.841V16.2119H137.618L146.578 44.6543L156.026 11.9883H163.326L173.385 44.6543L182.516 16.2119H178.829V11.9883ZM216.476 44.8008H219.552L216.622 36.4023H202.389L199.532 44.8008H203.341V49H191.329V44.8008H194.552L206.075 11.9883H213.277L224.776 44.8008H228.487V49H216.476V44.8008ZM203.78 32.3496H215.206L209.444 15.7969L203.78 32.3496ZM232.223 11.9883H247.188C248.849 11.9883 250.37 12.208 251.754 12.6475C253.154 13.0706 254.358 13.7054 255.367 14.5518C256.393 15.3818 257.182 16.4235 257.735 17.6768C258.305 18.93 258.59 20.3704 258.59 21.998C258.59 23.349 258.313 24.6266 257.76 25.8311C257.206 27.0192 256.425 28.0609 255.416 28.9561C254.407 29.8512 253.194 30.5592 251.778 31.0801C250.379 31.6009 248.816 31.8613 247.091 31.8613H240.523V44.8008H244.234V49H232.223V44.8008H235.738V16.2119H232.223V11.9883ZM240.523 16.2119V27.8574H247.188C248.116 27.8574 248.963 27.7354 249.728 27.4912C250.509 27.2308 251.176 26.8564 251.729 26.3682C252.299 25.8799 252.739 25.2695 253.048 24.5371C253.373 23.8047 253.536 22.9583 253.536 21.998C253.536 20.1751 252.983 18.7591 251.876 17.75C250.769 16.7246 249.003 16.2119 246.578 16.2119H240.523Z" fill="#575757"/>
<path d="M113.522 77.6396V78H108.662V77.6396L110.288 77.0068V65.9062L108.662 65.2734V64.9131L111.729 64.2803L111.905 64.4648V77.0068L113.522 77.6396ZM122.558 73.5527H116.871C116.877 74.209 116.971 74.7803 117.152 75.2666C117.334 75.7529 117.58 76.1338 117.891 76.4092C118.201 76.6846 118.541 76.8867 118.91 77.0156C119.285 77.1445 119.692 77.209 120.132 77.209C120.741 77.209 121.395 77.0039 122.092 76.5938L122.364 77.1211C121.872 77.5547 121.38 77.8477 120.888 78C120.396 78.1465 119.836 78.2197 119.209 78.2197C118.664 78.2197 118.14 78.1055 117.636 77.877C117.132 77.6426 116.689 77.3232 116.309 76.9189C115.928 76.5088 115.623 76.0078 115.395 75.416C115.166 74.8242 115.052 74.1855 115.052 73.5C115.052 72.8496 115.134 72.2578 115.298 71.7246C115.468 71.1855 115.69 70.7373 115.966 70.3799C116.241 70.0225 116.561 69.7207 116.924 69.4746C117.293 69.2285 117.668 69.0527 118.049 68.9473C118.436 68.8359 118.828 68.7803 119.227 68.7803C119.725 68.7803 120.185 68.874 120.606 69.0615C121.034 69.2432 121.412 69.5156 121.74 69.8789C122.074 70.2363 122.335 70.708 122.522 71.2939C122.716 71.8799 122.812 72.5479 122.812 73.2979L122.558 73.5527ZM119.262 69.6328C118.588 69.6328 118.049 69.8994 117.645 70.4326C117.246 70.9658 117 71.6953 116.906 72.6211H121.099C121.099 71.6836 120.94 70.9512 120.624 70.4238C120.308 69.8965 119.854 69.6328 119.262 69.6328ZM132.814 77.2266V77.5518L130.907 78.1406C130.532 78.2227 130.216 78.1787 129.958 78.0088C129.7 77.8447 129.571 77.5605 129.571 77.1562C128.81 77.8652 127.916 78.2197 126.891 78.2197C126.041 78.2197 125.405 78 124.983 77.5605C124.562 77.1211 124.351 76.5703 124.351 75.9082C124.351 75.4102 124.462 74.9707 124.685 74.5898C124.907 74.2031 125.191 73.8955 125.537 73.667C125.883 73.4385 126.296 73.248 126.776 73.0957C127.257 72.9434 127.72 72.8379 128.165 72.7793C128.61 72.7207 129.079 72.6855 129.571 72.6738V71.8301C129.571 71.0098 129.442 70.4385 129.185 70.1162C128.927 69.7939 128.499 69.6328 127.901 69.6328C127.45 69.6328 126.92 69.7031 126.311 69.8438L125.379 71.8828H124.948V69.3779C125.476 69.1904 126.032 69.0439 126.618 68.9385C127.204 68.833 127.72 68.7803 128.165 68.7803C129.132 68.7803 129.876 68.9766 130.397 69.3691C130.925 69.7559 131.188 70.3945 131.188 71.2852V76.7783L132.814 77.2266ZM127.629 77.1914C127.963 77.1914 128.306 77.1123 128.657 76.9541C129.009 76.79 129.313 76.5674 129.571 76.2861V73.3945C128.399 73.4473 127.506 73.6875 126.891 74.1152C126.275 74.5371 125.968 75.0762 125.968 75.7324C125.968 76.2363 126.129 76.6055 126.451 76.8398C126.773 77.0742 127.166 77.1914 127.629 77.1914ZM139.028 77.6396V78H133.72V77.6396L135.337 77.0068V70.4062L133.72 69.7734V69.4131L136.778 68.7803L136.954 68.9648V70.0459C137.845 69.2021 139.017 68.7803 140.47 68.7803V70.7314L140.109 70.8545L138.826 70.1514C138.562 70.1514 138.261 70.21 137.921 70.3271C137.581 70.4385 137.259 70.6025 136.954 70.8193V77.0068L139.028 77.6396ZM146.13 77.6396V78H141.366V77.6396L142.983 77.0068V70.4062L141.366 69.7734V69.4131L144.425 68.7803L144.601 68.9648V70.0283C145.017 69.6416 145.503 69.3369 146.06 69.1143C146.616 68.8916 147.164 68.7803 147.703 68.7803C148.488 68.7803 149.139 69.0205 149.654 69.501C150.176 69.9814 150.437 70.6963 150.437 71.6455V77.0068L152.054 77.6396V78H147.281V77.6396L148.819 77.0068V72.1816C148.819 71.3379 148.667 70.752 148.362 70.4238C148.063 70.0957 147.548 69.9316 146.815 69.9316C145.942 69.9316 145.204 70.1924 144.601 70.7139V77.0068L146.13 77.6396ZM160.702 78.3955H160.166V65.9062L158.54 65.2734V64.9131L161.599 64.2803L161.783 64.4648V69.5801C162.393 69.0469 163.189 68.7803 164.174 68.7803C164.66 68.7803 165.132 68.8916 165.589 69.1143C166.052 69.3311 166.462 69.6387 166.819 70.0371C167.177 70.4297 167.464 70.9277 167.681 71.5312C167.897 72.1348 168.006 72.791 168.006 73.5C168.006 74.25 167.88 74.9297 167.628 75.5391C167.382 76.1484 167.048 76.6465 166.626 77.0332C166.204 77.4141 165.724 77.707 165.185 77.9121C164.651 78.1172 164.086 78.2197 163.488 78.2197C162.721 78.2197 161.959 78.0439 161.203 77.6924L160.702 78.3955ZM163.532 69.6855C162.841 69.6855 162.258 69.9609 161.783 70.5117V76.4883C162.076 76.8223 162.366 77.0449 162.653 77.1562C162.946 77.2617 163.257 77.3145 163.585 77.3145C164.13 77.3145 164.602 77.1299 165 76.7607C165.404 76.3916 165.7 75.9258 165.888 75.3633C166.081 74.7949 166.178 74.1738 166.178 73.5C166.178 72.3809 165.935 71.4668 165.448 70.7578C164.968 70.043 164.329 69.6855 163.532 69.6855ZM168.463 69.3604V69H173.121V69.3604L171.759 69.8965L174.352 75.7852L176.47 69.8613L175.178 69.3604V69H179.01V69.3604L177.393 69.9932L174.51 78L172.532 82.7197L171.038 82.4473L170.871 82.0869L173.666 77.6924L170.08 69.9316V69.9932L168.463 69.3604ZM190.163 82.1396V82.5H184.942V82.1396L186.568 81.5068V70.4062L184.942 69.7734V69.4131L188.001 68.7803L188.186 68.9648V69.8613C188.514 69.457 188.865 69.1758 189.24 69.0176C189.615 68.8594 190.055 68.7803 190.559 68.7803C191.045 68.7803 191.517 68.8916 191.974 69.1143C192.437 69.3311 192.847 69.6387 193.204 70.0371C193.567 70.4297 193.857 70.9277 194.074 71.5312C194.297 72.1348 194.408 72.791 194.408 73.5C194.408 74.3027 194.285 75.0146 194.039 75.6357C193.793 76.2568 193.462 76.752 193.046 77.1211C192.636 77.4844 192.182 77.7598 191.684 77.9473C191.186 78.1289 190.661 78.2197 190.11 78.2197C189.413 78.2197 188.771 78.0938 188.186 77.8418V81.5068L190.163 82.1396ZM190.181 69.6855C189.812 69.6855 189.448 69.7705 189.091 69.9404C188.733 70.1104 188.432 70.3477 188.186 70.6523V76.2334C188.355 76.5674 188.613 76.8311 188.959 77.0244C189.311 77.2178 189.694 77.3145 190.11 77.3145C190.362 77.3145 190.603 77.2734 190.831 77.1914C191.06 77.1094 191.282 76.9717 191.499 76.7783C191.716 76.585 191.903 76.3447 192.062 76.0576C192.22 75.7705 192.346 75.4102 192.439 74.9766C192.533 74.5371 192.58 74.0449 192.58 73.5C192.58 72.3633 192.369 71.4434 191.947 70.7402C191.525 70.0371 190.937 69.6855 190.181 69.6855ZM200.622 77.6396V78H195.762V77.6396L197.388 77.0068V65.9062L195.762 65.2734V64.9131L198.829 64.2803L199.005 64.4648V77.0068L200.622 77.6396ZM210.615 77.2266V77.5518L208.708 78.1406C208.333 78.2227 208.017 78.1787 207.759 78.0088C207.501 77.8447 207.372 77.5605 207.372 77.1562C206.61 77.8652 205.717 78.2197 204.691 78.2197C203.842 78.2197 203.206 78 202.784 77.5605C202.362 77.1211 202.151 76.5703 202.151 75.9082C202.151 75.4102 202.263 74.9707 202.485 74.5898C202.708 74.2031 202.992 73.8955 203.338 73.667C203.684 73.4385 204.097 73.248 204.577 73.0957C205.058 72.9434 205.521 72.8379 205.966 72.7793C206.411 72.7207 206.88 72.6855 207.372 72.6738V71.8301C207.372 71.0098 207.243 70.4385 206.985 70.1162C206.728 69.7939 206.3 69.6328 205.702 69.6328C205.251 69.6328 204.721 69.7031 204.111 69.8438L203.18 71.8828H202.749V69.3779C203.276 69.1904 203.833 69.0439 204.419 68.9385C205.005 68.833 205.521 68.7803 205.966 68.7803C206.933 68.7803 207.677 68.9766 208.198 69.3691C208.726 69.7559 208.989 70.3945 208.989 71.2852V76.7783L210.615 77.2266ZM205.43 77.1914C205.764 77.1914 206.106 77.1123 206.458 76.9541C206.81 76.79 207.114 76.5674 207.372 76.2861V73.3945C206.2 73.4473 205.307 73.6875 204.691 74.1152C204.076 74.5371 203.769 75.0762 203.769 75.7324C203.769 76.2363 203.93 76.6055 204.252 76.8398C204.574 77.0742 204.967 77.1914 205.43 77.1914ZM210.527 69.3604V69H215.186V69.3604L213.823 69.8965L216.416 75.7852L218.534 69.8613L217.242 69.3604V69H221.074V69.3604L219.457 69.9932L216.574 78L214.597 82.7197L213.103 82.4473L212.936 82.0869L215.73 77.6924L212.145 69.9316V69.9932L210.527 69.3604ZM226.383 77.6396V78H221.522V77.6396L223.14 77.0068V70.4062L221.522 69.7734V69.4131L224.581 68.7803L224.766 68.9648V77.0068L226.383 77.6396ZM222.551 66.1348C222.551 65.8301 222.656 65.5723 222.867 65.3613C223.084 65.1445 223.351 65.0361 223.667 65.0361C223.972 65.0361 224.229 65.1445 224.44 65.3613C224.657 65.5723 224.766 65.8301 224.766 66.1348C224.766 66.4512 224.657 66.7178 224.44 66.9346C224.229 67.1455 223.972 67.251 223.667 67.251C223.351 67.251 223.084 67.1455 222.867 66.9346C222.656 66.7178 222.551 66.4512 222.551 66.1348ZM232.315 77.6396V78H227.552V77.6396L229.169 77.0068V70.4062L227.552 69.7734V69.4131L230.61 68.7803L230.786 68.9648V70.0283C231.202 69.6416 231.688 69.3369 232.245 69.1143C232.802 68.8916 233.35 68.7803 233.889 68.7803C234.674 68.7803 235.324 69.0205 235.84 69.501C236.361 69.9814 236.622 70.6963 236.622 71.6455V77.0068L238.239 77.6396V78H233.467V77.6396L235.005 77.0068V72.1816C235.005 71.3379 234.853 70.752 234.548 70.4238C234.249 70.0957 233.733 69.9316 233.001 69.9316C232.128 69.9316 231.39 70.1924 230.786 70.7139V77.0068L232.315 77.6396ZM241.887 78.3428C241.312 78.6943 241.025 79.251 241.025 80.0127C241.025 80.3584 241.11 80.6455 241.28 80.874C241.45 81.1084 241.667 81.293 241.931 81.4277C242.194 81.5684 242.487 81.668 242.81 81.7266C243.132 81.7852 243.442 81.8145 243.741 81.8145C244.052 81.8145 244.362 81.7822 244.673 81.7178C244.989 81.6592 245.271 81.5684 245.517 81.4453C245.769 81.3281 245.974 81.1787 246.132 80.9971C246.29 80.8213 246.369 80.6133 246.369 80.373C246.369 80.0039 246.275 79.708 246.088 79.4854C245.906 79.2627 245.657 79.084 245.341 78.9492C245.024 78.8203 244.652 78.7236 244.225 78.6592C243.797 78.5947 243.34 78.5361 242.854 78.4834C242.648 78.46 242.464 78.4365 242.3 78.4131C242.142 78.3896 242.004 78.3662 241.887 78.3428ZM243.653 75.5479C243.05 75.5479 242.496 75.4541 241.992 75.2666C241.623 75.5127 241.438 75.8232 241.438 76.1982C241.438 76.415 241.562 76.5879 241.808 76.7168C242.06 76.8457 242.385 76.9395 242.783 76.998C243.182 77.0508 243.621 77.1006 244.102 77.1475C244.582 77.1943 245.062 77.2676 245.543 77.3672C246.023 77.4668 246.463 77.6045 246.861 77.7803C247.26 77.9502 247.582 78.208 247.828 78.5537C248.08 78.9053 248.206 79.333 248.206 79.8369C248.206 80.2412 248.109 80.6104 247.916 80.9443C247.723 81.2783 247.468 81.5508 247.151 81.7617C246.841 81.9785 246.475 82.1602 246.053 82.3066C245.631 82.4531 245.2 82.5586 244.761 82.623C244.327 82.6875 243.885 82.7197 243.434 82.7197C242.174 82.7197 241.189 82.5 240.48 82.0605C239.771 81.627 239.417 81.0586 239.417 80.3555C239.417 79.3418 239.977 78.6035 241.096 78.1406C240.398 77.9062 240.05 77.4697 240.05 76.8311C240.05 76.0811 240.507 75.457 241.421 74.959C240.911 74.6484 240.519 74.2441 240.243 73.7461C239.974 73.248 239.839 72.7207 239.839 72.1641C239.839 71.7363 239.924 71.3232 240.094 70.9248C240.264 70.5205 240.504 70.1602 240.814 69.8438C241.131 69.5215 241.535 69.2637 242.027 69.0703C242.52 68.877 243.062 68.7803 243.653 68.7803C244.169 68.7803 244.641 68.8535 245.068 69H248.602V69.3604L246.677 70.0459C247.204 70.6611 247.468 71.3672 247.468 72.1641C247.468 72.5918 247.38 73.0078 247.204 73.4121C247.034 73.8105 246.791 74.1709 246.475 74.4932C246.164 74.8096 245.763 75.0645 245.271 75.2578C244.784 75.4512 244.245 75.5479 243.653 75.5479ZM241.667 72.1641C241.667 72.9668 241.843 73.582 242.194 74.0098C242.546 74.4375 243.032 74.6514 243.653 74.6514C244.269 74.6514 244.752 74.4375 245.104 74.0098C245.455 73.5762 245.631 72.9609 245.631 72.1641C245.631 71.3672 245.455 70.7549 245.104 70.3271C244.752 69.8994 244.269 69.6855 243.653 69.6855C243.032 69.6855 242.546 69.8994 242.194 70.3271C241.843 70.7549 241.667 71.3672 241.667 72.1641Z" fill="#575757"/>
<defs>
<filter id="filter0_d" x="-4.00058" y="4.22016" width="63.4453" height="74.3207" filterUnits="userSpaceOnUse" color-interpolation-filters="sRGB">
<feFlood flood-opacity="0" result="BackgroundImageFix"/>
<feColorMatrix in="SourceAlpha" type="matrix" values="0 0 0 0 0 0 0 0 0 0 0 0 0 0 0 0 0 0 127 0"/>
<feOffset dy="4"/>
<feGaussianBlur stdDeviation="2"/>
<feColorMatrix type="matrix" values="0 0 0 0 0 0 0 0 0 0 0 0 0 0 0 0 0 0 0.25 0"/>
<feBlend mode="normal" in2="BackgroundImageFix" result="effect1_dropShadow"/>
<feBlend mode="normal" in="SourceGraphic" in2="effect1_dropShadow" result="shape"/>
</filter>
<filter id="filter1_d" x="23.7176" y="22.8935" width="64.283" height="65.2597" filterUnits="userSpaceOnUse" color-interpolation-filters="sRGB">
<feFlood flood-opacity="0" result="BackgroundImageFix"/>
<feColorMatrix in="SourceAlpha" type="matrix" values="0 0 0 0 0 0 0 0 0 0 0 0 0 0 0 0 0 0 127 0"/>
<feOffset dy="4"/>
<feGaussianBlur stdDeviation="2"/>
<feColorMatrix type="matrix" values="0 0 0 0 0 0 0 0 0 0 0 0 0 0 0 0 0 0 0.25 0"/>
<feBlend mode="normal" in2="BackgroundImageFix" result="effect1_dropShadow"/>
<feBlend mode="normal" in="SourceGraphic" in2="effect1_dropShadow" result="shape"/>
</filter>
<clipPath id="clip0">
<rect width="84" height="84" fill="white"/>
</clipPath>
</defs>
</svg>
