<svg xmlns="http://www.w3.org/2000/svg" width="289" height="86" fill="none"><rect id="backgroundrect" width="100%" height="100%" x="0" y="0" fill="none" stroke="none" class="" style=""/>







<defs>
<filter id="filter0_d" x="179.99899291992188" y="4.220160007476807" width="66.21759796142578" height="74.3207015991211" filterUnits="userSpaceOnUse" color-interpolation-filters="sRGB">
<feFlood flood-opacity="0" result="BackgroundImageFix"/>
<feColorMatrix in="SourceAlpha" type="matrix" values="0 0 0 0 0 0 0 0 0 0 0 0 0 0 0 0 0 0 127 0"/>
<feOffset dy="4"/>
<feGaussianBlur stdDeviation="2"/>
<feColorMatrix type="matrix" values="0 0 0 0 0 0 0 0 0 0 0 0 0 0 0 0 0 0 0.25 0"/>
<feBlend mode="normal" in2="BackgroundImageFix" result="effect1_dropShadow"/>
<feBlend mode="normal" in="SourceGraphic" in2="effect1_dropShadow" result="shape"/>
</filter>
<filter id="filter1_d" x="209.10299682617188" y="22.89349937438965" width="67.09709930419922" height="65.25969696044922" filterUnits="userSpaceOnUse" color-interpolation-filters="sRGB">
<feFlood flood-opacity="0" result="BackgroundImageFix"/>
<feColorMatrix in="SourceAlpha" type="matrix" values="0 0 0 0 0 0 0 0 0 0 0 0 0 0 0 0 0 0 127 0"/>
<feOffset dy="4"/>
<feGaussianBlur stdDeviation="2"/>
<feColorMatrix type="matrix" values="0 0 0 0 0 0 0 0 0 0 0 0 0 0 0 0 0 0 0.25 0"/>
<feBlend mode="normal" in2="BackgroundImageFix" result="effect1_dropShadow"/>
<feBlend mode="normal" in="SourceGraphic" in2="effect1_dropShadow" result="shape"/>
</filter>
</defs>
<g class="currentLayer" style=""><title>Layer 1</title><path d="M9.70508 21.9883H36.2188V32.4619H31.2139V26.2119H18.0059V38.1016H30.7256V42.2031H18.0059V54.8008H21.7168V59H9.70508V54.8008H13.2207V26.2119H9.70508V21.9883ZM86.8291 21.9883H98.8408V26.2119H95.6182L85.0469 59H77.5762L67.542 26.749L58.2891 59H50.8916L40.1006 26.2119H36.8291V21.9883H48.8408V26.2119H45.6182L54.5781 54.6543L64.0264 21.9883H71.3262L81.3848 54.6543L90.5156 26.2119H86.8291V21.9883ZM124.476 54.8008H127.552L124.622 46.4023H110.389L107.532 54.8008H111.341V59H99.3291V54.8008H102.552L114.075 21.9883H121.277L132.776 54.8008H136.487V59H124.476V54.8008ZM111.78 42.3496H123.206L117.444 25.7969L111.78 42.3496ZM140.223 21.9883H155.188C156.849 21.9883 158.37 22.208 159.754 22.6475C161.154 23.0706 162.358 23.7054 163.367 24.5518C164.393 25.3818 165.182 26.4235 165.735 27.6768C166.305 28.93 166.59 30.3704 166.59 31.998C166.59 33.349 166.313 34.6266 165.76 35.8311C165.206 37.0192 164.425 38.0609 163.416 38.9561C162.407 39.8512 161.194 40.5592 159.778 41.0801C158.379 41.6009 156.816 41.8613 155.091 41.8613H148.523V54.8008H152.234V59H140.223V54.8008H143.738V26.2119H140.223V21.9883ZM148.523 26.2119V37.8574H155.188C156.116 37.8574 156.963 37.7354 157.728 37.4912C158.509 37.2308 159.176 36.8564 159.729 36.3682C160.299 35.8799 160.739 35.2695 161.048 34.5371C161.373 33.8047 161.536 32.9583 161.536 31.998C161.536 30.1751 160.983 28.7591 159.876 27.75C158.769 26.7246 157.003 26.2119 154.578 26.2119H148.523Z" fill="#F7F7F7" id="svg_1"/><g filter="url(#filter0_d)" id="svg_2">
<path d="M217.972 66.1596L213.103 67.6927L204.371 70.442C203.3 70.7795 202.144 70.2254 201.79 69.2045L184.103 18.2508C183.749 17.2308 184.331 16.1302 185.402 15.7935L221.843 4.31906C222.915 3.98158 224.072 4.53569 224.426 5.5565L226.654 11.9717L242.114 56.5102C242.467 57.5303 241.885 58.6309 240.814 58.9676L217.972 66.1596Z" fill="#8DBBFF" id="svg_3"/>
</g><path d="M201.292 10.7905L185.402 15.7935C184.331 16.1302 183.749 17.2308 184.103 18.2508L201.79 69.2045C202.144 70.2253 203.3 70.7795 204.371 70.442L213.103 67.6927L217.972 66.1596L220.586 65.3364L201.292 10.7905Z" fill="#749CD8" id="svg_4"/><g filter="url(#filter1_d)" id="svg_5">
<path d="M271.02 28.9651C271.942 29.2745 272.425 30.2375 272.099 31.1147L254.324 79.0295C253.996 79.9067 252.985 80.3665 252.063 80.0564L215.359 67.7049H213.107L213.103 67.6927L217.972 66.1596H250.268C251.245 66.1589 252.036 65.4048 252.037 64.4745V22.8935H252.095L271.02 28.9651Z" fill="#FFF599" id="svg_6"/>
</g><path d="M252.037 22.8935V64.4745C252.036 65.4048 251.245 66.1589 250.268 66.1596H217.972L240.814 58.9676C241.885 58.6309 242.467 57.5303 242.114 56.5102L226.654 11.9717H250.268C251.245 11.9725 252.036 12.7265 252.037 13.6568V22.8935Z" fill="#8CFF79" id="svg_7"/><path d="M223.749 35.6927C223.141 31.2599 218.698 26.5731 210.142 26.0958C209.832 26.0775 209.522 26.1163 209.227 26.209C208.967 26.2934 208.723 26.4181 208.504 26.5769C208.474 26.5982 208.445 26.6202 208.416 26.6438C201.872 31.9394 201.237 38.2064 203.51 42.0684L203.517 42.079C204.876 44.351 207.065 45.6203 209.423 45.6203C210.127 45.618 210.825 45.5093 211.492 45.2965C212.862 44.8283 214.083 44.0302 215.036 42.9813C216.617 43.3089 218.084 43.2671 219.397 42.8536C222.51 41.8715 224.217 39.0592 223.749 35.6927Z" fill="#F8EC7D" id="svg_8"/><path d="M213.518 50.8475C212.763 50.8475 212.085 50.4082 211.807 49.7393C211.53 49.0704 211.711 48.308 212.262 47.817L214.986 45.3923C215.719 44.7386 216.714 44.4201 217.713 44.5197L221.531 44.8906C222.534 44.9971 223.259 45.8537 223.157 46.8091C223.054 47.7653 222.162 48.4646 221.157 48.3749L217.428 48.0123L214.774 50.3755C214.433 50.6795 213.985 50.8483 213.518 50.8475ZM217.502 47.9477H217.5H217.502Z" fill="#F8EC7D" id="svg_9"/></g></svg>